<?xml version="1.0" encoding="iso-8859-1"?>
<!-- Generator: Adobe Illustrator 19.0.0, SVG Export Plug-In . SVG Version: 6.00 Build 0)  -->
<svg version="1.1" id="Layer_1" xmlns="http://www.w3.org/2000/svg" xmlns:xlink="http://www.w3.org/1999/xlink" x="0px" y="0px"
	 viewBox="0 0 512 512" style="enable-background:new 0 0 512 512;" xml:space="preserve">
<circle style="fill:#366695;" cx="256" cy="256" r="256"/>
<path style="fill:#273B7A;" d="M154.577,355.987l151.166,151.166c101.159-19.923,180.924-99.423,201.225-200.445L356.274,156.013
	L154.577,355.987z"/>
<circle style="fill:#E2E2E2;" cx="256" cy="256" r="142.222"/>
<path style="fill:#B2B2B2;" d="M256,113.778c-0.193,0-0.381,0.014-0.574,0.014v284.415c0.193,0,0.381,0.014,0.574,0.014
	c78.546,0,142.222-63.676,142.222-142.222S334.546,113.778,256,113.778z"/>
<g>
	<path style="fill:#FFFFFF;" d="M166.002,366.113L366.113,166c-6.018-7.354-12.759-14.095-20.113-20.113L145.887,346
		C151.907,353.356,158.646,360.095,166.002,366.113z"/>
	<path style="fill:#FFFFFF;" d="M256,113.778c-0.198,0-0.393,0.014-0.591,0.016L113.793,255.409c0,0.198-0.016,0.393-0.016,0.591
		c0,22.44,5.215,43.656,14.47,62.531L318.53,128.248C299.656,118.993,278.44,113.778,256,113.778z"/>
</g>
<circle style="fill:#848484;" cx="256" cy="256" r="42.667"/>
<path style="fill:#5E5E5E;" d="M256,213.333c-0.193,0-0.383,0.012-0.574,0.014v85.304c0.191,0.002,0.381,0.014,0.574,0.014
	c23.564,0,42.667-19.103,42.667-42.667S279.564,213.333,256,213.333z"/>
<circle style="fill:#273B7A;" cx="256" cy="256" r="28.444"/>
<g>
</g>
<g>
</g>
<g>
</g>
<g>
</g>
<g>
</g>
<g>
</g>
<g>
</g>
<g>
</g>
<g>
</g>
<g>
</g>
<g>
</g>
<g>
</g>
<g>
</g>
<g>
</g>
<g>
</g>
</svg>
